<svg width="83" height="47" viewBox="0 0 83 47" fill="none" xmlns="http://www.w3.org/2000/svg">
<path d="M79.5169 46.574H2.6265C1.17584 46.574 0 45.398 0 43.9475V2.6265C0 1.176 1.17584 0 2.6265 0H79.5169C80.9674 0 82.1434 1.17584 82.1434 2.6265V43.9475C82.1434 45.398 80.9675 46.574 79.5169 46.574Z" fill="#5EA570"/>
<path d="M79.5156 0H76.041C77.4917 0 78.6675 1.17584 78.6675 2.6265V43.9475C78.6675 45.398 77.4917 46.574 76.041 46.574H79.5156C80.9661 46.574 82.1421 45.398 82.1421 43.9475V2.6265C82.1421 1.176 80.9663 0 79.5156 0Z" fill="#528E61"/>
<path d="M72.986 33.1908C73.2092 33.1726 73.38 32.9864 73.38 32.7626V13.8116C73.38 13.5881 73.2087 13.4017 72.986 13.3834C70.6732 13.1936 68.8296 11.3474 68.6435 9.03347C68.6258 8.81495 68.4439 8.64746 68.2246 8.64746H13.9297C13.7063 8.64746 13.5198 8.81881 13.5015 9.04149C13.3119 11.3516 11.4698 13.1937 9.15966 13.3834C8.93649 13.4017 8.76562 13.5878 8.76562 13.8116V32.7626C8.76562 32.9861 8.93697 33.1726 9.15966 33.1908C11.4698 33.3805 13.3119 35.2226 13.5015 37.5327C13.5198 37.7559 13.7059 37.9268 13.9297 37.9268H68.2159C68.4394 37.9268 68.6258 37.7554 68.6441 37.5327C68.8338 35.2226 70.6759 33.3805 72.986 33.1908Z" fill="#8BC852"/>
<path d="M72.9865 13.3832C70.6736 13.1934 68.8301 11.3473 68.644 9.03347C68.6263 8.81496 68.4444 8.64746 68.2251 8.64746H64.0399C64.2591 8.64746 64.4412 8.81496 64.4588 9.03347C64.6449 11.3474 66.4885 13.1934 68.8013 13.3832C69.024 13.4015 69.1954 13.5879 69.1954 13.8114V32.7625C69.1954 32.9863 69.0245 33.1724 68.8013 33.1907C66.4912 33.3803 64.6491 35.2224 64.4595 37.5326C64.4412 37.7552 64.2547 37.9266 64.0312 37.9266H68.2164C68.4399 37.9266 68.6263 37.7552 68.6446 37.5326C68.8342 35.2224 70.6764 33.3803 72.9865 33.1907C73.2097 33.1724 73.3805 32.9863 73.3805 32.7625V13.8114C73.3805 13.5879 73.2093 13.4015 72.9865 13.3832Z" fill="#7DBE3B"/>
<path d="M41.0719 41.8919C51.3473 41.8919 59.6771 33.5621 59.6771 23.2868C59.6771 13.0114 51.3473 4.68164 41.0719 4.68164C30.7966 4.68164 22.4668 13.0114 22.4668 23.2868C22.4668 33.5621 30.7966 41.8919 41.0719 41.8919Z" fill="#CBE7AF"/>
<path d="M41.0717 4.68164C40.3866 4.68164 39.7107 4.71983 39.0449 4.79202C48.3666 5.80213 55.6231 13.6966 55.6231 23.2868C55.6231 32.877 48.3666 40.7715 39.0449 41.7816C39.7107 41.8538 40.3868 41.8919 41.0717 41.8919C51.347 41.8919 59.6769 33.5621 59.6769 23.2868C59.6769 13.0115 51.347 4.68164 41.0717 4.68164Z" fill="#AAD880"/>
<path d="M43.4587 22.0086C43.0422 21.8614 42.6156 21.7067 42.1908 21.545V14.9401C43.3105 15.1725 43.9796 15.7441 44.0342 15.7922C44.5376 16.249 45.3162 16.2151 45.7781 15.7146C46.2423 15.2114 46.2107 14.4271 45.7074 13.9629C45.6307 13.8923 44.3251 12.7173 42.1906 12.4271V11.0252C42.1906 10.3406 41.6357 9.78564 40.9511 9.78564C40.2665 9.78564 39.7116 10.3406 39.7116 11.0252V12.5224C39.486 12.5694 39.2558 12.627 39.0204 12.6979C37.1277 13.2679 35.7133 14.8888 35.3292 16.9281C34.9795 18.7837 35.5715 20.5713 36.8742 21.593C37.5877 22.1526 38.4801 22.665 39.7116 23.2087V31.5015C38.5829 31.4349 37.8401 31.1869 36.5883 30.3678C36.0154 29.9932 35.2471 30.1535 34.8723 30.7264C34.4975 31.2993 34.6581 32.0677 35.2309 32.4425C36.9747 33.5832 38.1561 33.9055 39.7116 33.9814V35.549C39.7116 36.2337 40.2665 36.7885 40.9511 36.7885C41.6357 36.7885 42.1906 36.2336 42.1906 35.549V33.8869C45.2246 33.3337 46.9963 30.8516 47.386 28.5336C47.8813 25.5881 46.3398 23.0269 43.4587 22.0086ZM38.4043 19.6422C37.8327 19.1939 37.5877 18.3298 37.7655 17.3871C37.9306 16.5107 38.529 15.4482 39.7116 15.0799V20.4612C39.2158 20.2015 38.7696 19.9286 38.4043 19.6422ZM44.9411 28.1227C44.7202 29.4367 43.7847 30.836 42.1906 31.3335V24.1878C42.3352 24.2401 42.4812 24.2926 42.6325 24.346C45.2107 25.2573 45.0514 27.4672 44.9411 28.1227Z" fill="#5EA570"/>
</svg>
