<svg width="21" height="21" viewBox="0 0 21 21" fill="none" xmlns="http://www.w3.org/2000/svg">
<path d="M8.09337 0H1.53113C0.686823 0 0 0.686823 0 1.53113V5.46847C0 6.31294 0.686823 6.99977 1.53113 6.99977H8.09337C8.93784 6.99977 9.62466 6.31294 9.62466 5.46847V1.53113C9.62466 0.686823 8.93784 0 8.09337 0Z" fill="#00F654"/>
<path d="M8.09337 8.74951H1.53113C0.686823 8.74951 0 9.43634 0 10.2808V19.4679C0 20.3122 0.686823 20.9991 1.53113 20.9991H8.09337C8.93784 20.9991 9.62466 20.3122 9.62466 19.4679V10.2808C9.62466 9.43634 8.93784 8.74951 8.09337 8.74951Z" fill="#00F654"/>
<path d="M19.4685 13.9993H12.9063C12.0618 13.9993 11.375 14.6861 11.375 15.5306V19.4679C11.375 20.3122 12.0618 20.999 12.9063 20.999H19.4685C20.3128 20.999 20.9997 20.3122 20.9997 19.4679V15.5306C20.9997 14.6861 20.3128 13.9993 19.4685 13.9993Z" fill="#00F654"/>
<path d="M19.4685 0H12.9063C12.0618 0 11.375 0.686823 11.375 1.53113V10.7183C11.375 11.5627 12.0618 12.2496 12.9063 12.2496H19.4685C20.3128 12.2496 20.9997 11.5627 20.9997 10.7183V1.53113C20.9997 0.686823 20.3128 0 19.4685 0Z" fill="#00F654"/>
</svg>
