<svg width="21" height="23" viewBox="0 0 21 23" fill="none" xmlns="http://www.w3.org/2000/svg">
<path d="M8.23193 18.3452C6.02765 18.3452 4.23353 16.5511 4.23353 14.3468V4.70386H2.58722C1.16002 4.70386 0 5.8637 0 7.2909V19.9915C0 21.4187 1.16002 22.5787 2.58722 22.5787H14.3469C15.7741 22.5787 16.9341 21.4187 16.9341 19.9915V18.3452H8.23193Z" fill="#00F754"/>
<path d="M20.697 2.58722C20.697 1.15812 19.5389 0 18.11 0H8.23175C6.80265 0 5.64453 1.15812 5.64453 2.58722V14.3469C5.64453 15.776 6.80265 16.9341 8.23175 16.9341H18.11C19.5389 16.9341 20.697 15.776 20.697 14.3469V2.58722Z" fill="#00F754"/>
</svg>
