<svg width="17" height="12" viewBox="0 0 17 12" fill="none" xmlns="http://www.w3.org/2000/svg">
<path d="M8.01717 5.94902C9.55933 5.94902 10.8136 4.69396 10.8136 3.15255C10.8136 1.61114 9.55933 0.356079 8.01717 0.356079C6.47501 0.356079 5.2207 1.61114 5.2207 3.15255C5.2207 4.69396 6.47501 5.94902 8.01717 5.94902Z" fill="#00F754"/>
<path d="M12.8653 7.12945C14.0129 7.12945 14.9473 6.1958 14.9473 5.04813C14.9473 3.90046 14.0129 2.96606 12.8653 2.96606C11.7176 2.96606 10.7832 3.90046 10.7832 5.04813C10.7832 6.1958 11.7176 7.12945 12.8653 7.12945Z" fill="#00F754"/>
<path d="M3.16996 7.12945C4.31763 7.12945 5.25202 6.1958 5.25202 5.04813C5.25202 3.90046 4.31763 2.96606 3.16996 2.96606C2.02228 2.96606 1.08789 3.90046 1.08789 5.04813C1.08789 6.1958 2.02228 7.12945 3.16996 7.12945Z" fill="#00F754"/>
<path fill-rule="evenodd" clip-rule="evenodd" d="M8.01644 6.3219C5.64876 6.3219 3.72852 8.2414 3.72852 10.6098V11.3555C3.72852 11.6643 3.97908 11.9148 4.28781 11.9148H11.7451C12.0538 11.9148 12.3044 11.6643 12.3044 11.3555V10.6098C12.3044 8.2414 10.3841 6.3219 8.01644 6.3219Z" fill="#00F754"/>
<path d="M3.16933 7.81335C1.4221 7.81335 0 9.23471 0 10.9827C0 11.4965 0.418352 11.9148 0.932157 11.9148H2.99782C2.75471 11.5375 2.61004 11.0916 2.61004 10.6098C2.61004 9.59116 2.89864 8.64036 3.39007 7.82678C3.31699 7.82156 3.24391 7.81335 3.16933 7.81335Z" fill="#00F754"/>
<path d="M12.8653 7.81335C12.7907 7.81335 12.7176 7.82156 12.6445 7.82678C13.136 8.64036 13.4246 9.59116 13.4246 10.6098C13.4246 11.0916 13.2799 11.5375 13.0368 11.9148H15.1024C15.6162 11.9148 16.0346 11.4965 16.0346 10.9827C16.0346 9.23471 14.6125 7.81335 12.8653 7.81335Z" fill="#00F754"/>
</svg>
