<svg width="39" height="42" viewBox="0 0 39 42" fill="none" xmlns="http://www.w3.org/2000/svg">
<path d="M8.46777 10.9788C8.48502 4.89461 13.4473 -0.0274721 19.5361 0.000115404C25.6031 0.0277029 30.5125 4.97622 30.4941 11.0466C30.4757 17.132 25.5134 22.0552 19.4258 22.0265C13.3611 21.9977 8.45168 17.0481 8.46892 10.9788H8.46777Z" fill="white" fillOpacity="0.8"/>
<path d="M18.7227 24.7795C15.3788 30.9395 16.2122 36.4111 21.2148 41.301H20.8147C15.4087 41.301 10.0027 41.301 4.59787 41.301C1.96326 41.301 0.203402 39.5423 0.211449 36.903C0.216047 35.1558 0.106846 33.4017 0.464335 31.6729C1.52416 26.5336 4.43234 22.8449 9.1682 20.5931C9.33948 20.5114 9.47741 20.454 9.65673 20.6344C12.1097 23.1024 15.0811 24.4611 18.5445 24.7519C18.6146 24.7576 18.6848 24.7737 18.7238 24.7806L18.7227 24.7795Z" fill="white" fillOpacity="0.8"/>
<path d="M19.4824 31.6535C19.4985 26.3003 23.8401 22.0024 29.2059 22.0277C34.4372 22.0518 38.7707 26.4015 38.7535 31.6098C38.7351 37.0641 34.4395 41.3171 28.9691 41.2976C23.7746 41.2792 19.4675 36.8997 19.4836 31.6535H19.4824ZM27.7426 30.2879C27.2679 30.2879 26.854 30.2833 26.4402 30.2879C25.6 30.2982 24.9919 30.8776 24.9907 31.6615C24.9907 32.442 25.6023 33.0282 26.4391 33.0397C26.8632 33.0455 27.2885 33.0397 27.7426 33.0397C27.7426 33.4616 27.7426 33.8317 27.7426 34.2007C27.7449 35.1536 28.2863 35.7847 29.1082 35.7916C29.9484 35.7985 30.4944 35.164 30.4967 34.1812C30.4967 33.8133 30.4967 33.4443 30.4967 33.0397C30.9393 33.0397 31.337 33.042 31.7347 33.0397C32.6175 33.034 33.2371 32.4788 33.2486 31.6845C33.2601 30.8718 32.6325 30.2925 31.7336 30.2879C31.3255 30.2856 30.9163 30.2879 30.4967 30.2879C30.4967 29.8465 30.4967 29.474 30.4967 29.1028C30.4933 28.1602 29.9335 27.5291 29.1082 27.536C28.2955 27.5429 27.7472 28.1636 27.7437 29.0821C27.7426 29.466 27.7437 29.8511 27.7437 30.2879H27.7426Z" fill="white" fillOpacity="0.8"/>
</svg>
