<?xml version="1.0" standalone="no"?>
<!DOCTYPE svg PUBLIC "-//W3C//DTD SVG 20010904//EN"
 "http://www.w3.org/TR/2001/REC-SVG-20010904/DTD/svg10.dtd">
<svg version="1.0" xmlns="http://www.w3.org/2000/svg"
 width="222.000000pt" height="222.000000pt" viewBox="0 0 222.000000 222.000000"
 preserveAspectRatio="xMidYMid meet">
<metadata>
Created by potrace 1.14, written by Peter Selinger 2001-2017
</metadata>
<g transform="translate(0.000000,222.000000) scale(0.100000,-0.100000)"
fill="#000000" stroke="none">
<path d="M1179 1543 c-1 -5 -1 -12 0 -17 1 -5 -5 -6 -13 -3 -9 4 -20 -1 -25
-11 -6 -10 -11 -12 -11 -4 0 6 -5 12 -11 12 -5 0 -7 -6 -3 -12 5 -9 2 -9 -9 1
-9 7 -17 10 -17 5 0 -5 -80 -9 -177 -8 -167 1 -180 0 -203 -20 -14 -11 -19
-14 -12 -6 6 8 12 19 12 25 0 5 -5 2 -11 -8 -6 -9 -13 -16 -17 -13 -4 2 -8 -6
-8 -19 -2 -26 -32 -75 -46 -75 -5 0 -6 5 -2 12 4 6 3 8 -4 5 -5 -4 -9 -18 -7
-32 2 -23 -6 -30 -29 -26 -5 1 -4 -5 3 -13 10 -12 9 -17 -7 -25 -11 -6 -23 -7
-28 -3 -5 4 -2 -2 6 -12 13 -18 13 -19 -1 -14 -9 4 -16 1 -16 -8 0 -7 5 -10
10 -7 6 3 7 1 3 -5 -4 -7 -14 -12 -22 -12 -8 0 -14 -5 -14 -11 0 -5 5 -7 12
-3 6 4 3 -4 -8 -18 -10 -14 -22 -24 -25 -22 -4 2 -9 -6 -12 -17 -4 -14 -10
-18 -19 -13 -9 5 -8 2 2 -11 9 -11 10 -16 3 -11 -8 4 -13 2 -13 -6 0 -7 -10
-24 -21 -38 l-20 -25 11 25 c11 24 10 24 -5 5 -8 -11 -13 -25 -11 -32 3 -7 0
-13 -6 -13 -6 0 -8 -3 -5 -7 6 -5 -11 -32 -49 -82 -2 -2 -11 2 -21 10 -14 11
-15 11 -9 0 5 -8 3 -17 -5 -23 -11 -8 -10 -9 3 -4 23 7 23 1 -1 -23 -11 -11
-23 -16 -27 -13 -5 4 -3 0 4 -9 9 -13 6 -21 -19 -47 -17 -17 -32 -38 -33 -46
-3 -22 -27 -46 -45 -46 -12 0 -13 -2 -3 -9 11 -7 11 -11 -1 -23 -12 -11 -12
-17 -2 -31 10 -14 14 -15 18 -3 4 10 25 13 95 11 50 -1 96 -6 103 -10 7 -5 10
-4 5 3 -4 8 3 10 24 7 17 -2 28 0 25 5 -8 13 6 41 18 33 7 -4 8 0 4 11 -5 13
-3 17 7 13 8 -3 20 2 28 11 12 15 11 16 -4 3 -12 -9 -18 -10 -18 -2 0 6 7 14
15 17 8 4 15 14 15 24 0 9 9 25 20 35 11 10 17 23 13 29 -4 6 1 5 11 -3 15
-12 19 -12 29 0 7 8 8 11 3 7 -17 -14 -26 -9 -26 15 0 18 2 19 10 7 8 -12 10
-11 10 6 0 12 9 32 21 45 l20 24 -17 -30 -16 -30 21 25 c11 14 19 30 17 36 -3
7 4 21 14 32 10 11 16 23 12 28 -4 4 1 4 10 1 13 -4 15 -2 11 10 -5 12 -3 14
7 8 10 -6 12 -4 7 8 -7 19 17 42 35 31 8 -5 8 -1 -2 11 -14 17 -13 18 4 12 15
-6 17 -5 8 6 -9 11 -4 22 24 50 20 20 33 40 29 46 -8 14 18 14 32 0 8 -8 13
-7 18 2 5 7 4 10 -3 5 -19 -12 -32 27 -16 49 8 10 14 13 14 7 0 -7 5 -12 11
-12 5 0 7 5 3 12 -5 8 0 9 15 5 16 -4 20 -2 12 6 -7 9 2 12 34 13 24 0 42 -3
40 -6 -3 -4 -16 -6 -31 -4 -25 2 -25 2 -8 -17 21 -23 32 -25 13 -2 -12 14 -12
16 1 11 8 -3 27 1 43 9 15 7 27 9 27 4 0 -5 -5 -11 -10 -13 -6 -2 0 -9 12 -17
21 -13 22 -13 10 2 -17 20 -1 31 51 33 33 1 36 -1 25 -15 -10 -12 -7 -12 16 3
25 16 28 16 23 2 -6 -15 -4 -15 18 0 29 19 32 10 8 -20 -10 -12 -4 -8 14 7 19
18 33 25 37 18 4 -6 12 -11 17 -11 6 0 7 5 4 10 -3 6 -1 10 4 10 6 0 11 -5 11
-11 0 -8 5 -7 15 1 13 10 19 9 36 -6 19 -17 20 -17 13 2 -7 17 -6 18 11 4 17
-14 18 -14 6 8 -6 12 -9 22 -6 22 3 0 -4 9 -15 20 -11 11 -20 26 -20 33 0 7
-9 18 -20 25 -12 7 -18 17 -15 22 3 5 -3 13 -12 19 -10 6 -13 11 -7 11 15 0
13 24 -4 39 -12 12 -13 11 -8 -10 6 -20 5 -21 -4 -6 -9 14 -15 15 -32 6 -16
-9 -19 -8 -12 3 9 15 14 38 8 38 -2 0 -5 -3 -5 -7z"/>
<path d="M1345 1540 c-3 -6 1 -7 9 -4 18 7 21 14 7 14 -6 0 -13 -4 -16 -10z"/>
<path d="M876 1522 c-3 -5 1 -9 9 -9 8 0 12 4 9 9 -3 4 -7 8 -9 8 -2 0 -6 -4
-9 -8z"/>
<path d="M1410 1519 c0 -5 5 -7 10 -4 6 3 10 8 10 11 0 2 -4 4 -10 4 -5 0 -10
-5 -10 -11z"/>
<path d="M1449 1523 c-1 -5 -1 -10 -1 -13 0 -3 -32 -6 -73 -5 -40 0 -71 3 -68
8 2 4 -1 7 -6 7 -6 0 -11 -4 -11 -9 0 -5 -7 -8 -16 -7 -18 1 -28 -30 -13 -40
5 -3 7 -9 4 -14 -3 -5 5 -14 17 -20 22 -11 22 -10 4 4 -11 9 -15 16 -9 16 11
0 68 -69 68 -82 0 -4 6 -13 13 -19 6 -7 12 -17 12 -22 0 -6 8 -16 18 -24 11
-10 12 -12 2 -8 -9 4 -7 0 4 -9 10 -8 15 -20 11 -26 -3 -6 -2 -9 5 -8 6 2 18
-10 28 -27 9 -16 22 -35 27 -41 43 -51 47 -57 32 -51 -11 4 -14 2 -11 -8 3 -8
12 -11 20 -8 10 4 12 0 7 -13 -4 -11 -3 -15 4 -11 9 6 30 -24 21 -30 -2 -2 7
-10 20 -18 12 -9 20 -21 17 -26 -4 -5 -1 -9 4 -9 6 0 11 -9 11 -20 0 -11 6
-19 13 -18 6 2 11 -3 9 -9 -1 -7 3 -13 9 -13 5 0 7 -4 4 -10 -3 -5 0 -10 8
-10 8 0 17 -8 21 -17 11 -33 43 -82 50 -76 3 3 6 2 6 -4 0 -6 11 -27 25 -47
13 -20 22 -36 20 -36 -3 0 3 -8 13 -18 15 -15 35 -18 134 -17 118 0 121 1 90
38 -8 9 -12 17 -8 17 4 0 1 7 -8 15 -8 9 -13 23 -10 33 5 14 4 15 -5 2 -10
-13 -15 -8 -12 13 0 4 -4 7 -10 7 -6 0 -8 7 -5 16 3 8 2 13 -3 10 -8 -6 -81
91 -81 107 0 5 -7 15 -15 24 -8 8 -13 19 -10 24 4 5 -2 9 -12 9 -15 0 -16 2
-3 10 13 8 13 10 -1 10 -17 0 -31 22 -34 53 -2 17 10 24 18 10 2 -5 2 -2 0 6
-2 8 5 20 16 27 11 8 18 22 16 31 -3 22 14 45 28 36 6 -3 7 -1 3 5 -4 6 1 20
11 30 10 10 19 25 21 33 2 8 15 24 30 37 15 13 20 20 12 16 -12 -6 -12 -4 1
12 9 10 19 28 23 39 6 16 9 17 17 5 8 -12 9 -10 4 6 -3 14 3 29 19 47 13 14
21 29 17 33 -3 4 2 4 11 1 10 -3 20 -1 24 5 4 6 3 8 -4 4 -6 -3 -15 2 -21 11
-5 10 -13 15 -17 11 -4 -5 -14 -2 -22 5 -9 6 -13 7 -9 1 4 -7 -5 -11 -24 -12
-20 0 -27 3 -22 11 5 9 3 9 -8 0 -12 -10 -18 -10 -29 0 -8 7 -10 8 -7 1 5 -8
-8 -11 -43 -9 -35 2 -53 -2 -62 -13 -11 -13 -11 -14 0 -8 11 7 12 4 3 -13 -7
-11 -16 -21 -21 -21 -6 0 -10 -7 -10 -15 0 -8 -4 -15 -10 -15 -5 0 -10 -7 -10
-15 0 -8 -5 -15 -12 -15 -6 0 -9 -3 -5 -6 3 -3 -5 -18 -19 -32 -13 -15 -24
-33 -24 -40 0 -7 -4 -11 -9 -7 -5 3 -11 -3 -14 -12 -3 -16 -5 -16 -12 2 -5 11
-11 22 -15 25 -19 14 -58 85 -53 94 3 6 2 8 -2 3 -10 -8 -66 73 -59 85 3 4 -3
5 -12 1 -13 -5 -15 -3 -9 8 7 12 6 12 -7 1 -13 -10 -18 -10 -24 -1 -5 8 -3 9
6 4 9 -5 11 -4 6 3 -8 14 -15 15 -17 5z m371 -357 c0 -3 -4 -8 -10 -11 -5 -3
-10 -1 -10 4 0 6 5 11 10 11 6 0 10 -2 10 -4z"/>
<path d="M639 1433 c-13 -16 -12 -17 4 -4 9 7 17 15 17 17 0 8 -8 3 -21 -13z"/>
<path d="M1316 1382 c-3 -5 1 -9 9 -9 8 0 12 4 9 9 -3 4 -7 8 -9 8 -2 0 -6 -4
-9 -8z"/>
<path d="M1342 1336 c7 -8 15 -12 17 -11 5 6 -10 25 -20 25 -5 0 -4 -6 3 -14z"/>
<path d="M1040 1309 c-11 -8 -9 -9 10 -3 23 6 24 6 10 -12 -14 -18 -14 -18 2
-5 29 22 8 41 -22 20z"/>
<path d="M836 1282 c-3 -5 1 -9 9 -9 8 0 12 4 9 9 -3 4 -7 8 -9 8 -2 0 -6 -4
-9 -8z"/>
<path d="M1080 1274 c-11 -12 -10 -18 5 -32 18 -16 18 -16 6 1 -11 14 -11 20
-1 32 7 8 10 15 7 15 -2 0 -10 -7 -17 -16z"/>
<path d="M1334 1260 c0 -16 3 -27 6 -25 8 5 6 42 -1 50 -3 2 -5 -8 -5 -25z"/>
<path d="M1040 1260 c-9 -6 -10 -10 -3 -10 6 0 15 5 18 10 8 12 4 12 -15 0z"/>
<path d="M1117 1255 c-4 -8 -3 -16 1 -19 4 -3 9 4 9 15 2 23 -3 25 -10 4z"/>
<path d="M1146 1258 c3 -5 10 -6 15 -3 13 9 11 12 -6 12 -8 0 -12 -4 -9 -9z"/>
<path d="M1276 1253 c-6 -14 -5 -15 5 -6 7 7 10 15 7 18 -3 3 -9 -2 -12 -12z"/>
<path d="M873 1233 c0 -9 4 -10 14 -2 7 6 13 12 13 14 0 1 -6 2 -13 2 -8 0
-14 -6 -14 -14z"/>
<path d="M1026 1218 c-9 -12 -16 -19 -16 -14 0 5 -8 2 -17 -5 -15 -12 -16 -12
-10 3 4 13 2 15 -11 11 -9 -4 -19 -10 -23 -15 -3 -4 -19 -4 -37 1 -20 6 -34 6
-38 0 -3 -5 -2 -9 3 -8 27 5 32 -2 16 -20 -9 -11 -20 -18 -23 -16 -4 3 -7 -3
-6 -13 1 -22 -59 -104 -69 -94 -5 4 -5 -1 -2 -11 5 -12 3 -16 -5 -11 -7 5 -9
2 -5 -9 4 -10 -3 -23 -18 -35 -13 -11 -21 -23 -17 -27 4 -5 -2 -5 -13 -1 -15
6 -17 4 -8 -5 13 -13 -5 -39 -29 -39 -11 0 -11 -2 0 -9 11 -7 11 -9 -2 -14
-10 -4 -13 -13 -9 -23 4 -12 3 -15 -5 -10 -7 4 -12 1 -12 -9 0 -9 -5 -13 -10
-10 -5 3 -10 -3 -10 -13 0 -11 -7 -25 -15 -32 -8 -7 -13 -16 -10 -20 3 -4 -3
-14 -12 -21 -14 -12 -16 -12 -8 1 6 12 5 13 -5 3 -19 -18 4 -41 37 -37 15 1
34 -3 42 -9 12 -9 13 -9 7 1 -4 7 -1 12 8 12 10 0 13 -6 10 -17 -5 -17 -5 -17
6 0 12 18 36 25 24 6 -5 -8 -1 -8 14 0 27 14 35 14 26 -1 -5 -7 -3 -8 5 -4 24
15 71 18 71 4 0 -8 3 -9 8 -3 10 14 124 17 116 3 -5 -7 -2 -8 7 -2 17 11 131
16 125 5 -3 -4 1 -8 9 -8 8 0 12 4 9 9 -3 4 3 8 13 8 16 0 68 62 68 81 0 4 4
11 9 16 6 5 6 2 1 -7 -8 -13 -7 -13 8 -1 20 16 23 35 5 26 -7 -4 -4 1 6 9 11
9 16 16 11 16 -5 0 0 7 11 15 12 9 14 14 6 15 -8 0 -10 5 -6 13 5 8 2 8 -9 -2
-12 -9 -17 -10 -17 -2 0 7 -5 9 -12 4 -18 -11 -88 -12 -88 -1 0 5 -6 6 -12 1
-21 -12 -88 -12 -88 1 0 7 -3 7 -8 1 -12 -17 -30 -15 -35 5 -3 12 5 29 25 47
16 15 33 39 39 53 8 19 12 21 19 10 5 -8 6 -19 3 -25 -4 -5 -2 -6 3 -2 5 5 9
13 9 19 0 13 74 18 81 6 3 -5 12 -3 21 3 12 10 16 10 24 -2 7 -12 9 -12 10 1
0 10 3 8 9 -5 l9 -20 0 20 c1 17 3 17 11 5 5 -8 10 -10 10 -4 0 6 7 11 15 11
8 0 15 -5 15 -11 0 -6 5 -4 10 4 8 12 10 12 10 1 0 -11 3 -11 15 -1 12 10 15
10 15 -1 0 -8 6 -5 14 6 8 11 12 23 10 27 -3 4 2 5 10 2 11 -4 16 0 16 15 0
12 5 21 10 21 5 0 9 5 7 12 -1 6 9 17 23 25 14 7 20 13 14 13 -17 0 -12 30 5
31 9 0 4 5 -11 11 -16 5 -28 16 -28 23 0 8 -4 17 -10 20 -5 3 -7 0 -4 -8 3 -8
-2 -17 -10 -20 -10 -4 -16 -1 -16 9 0 8 -5 12 -10 9 -6 -4 -8 -11 -4 -16 3 -5
-10 -1 -29 10 -25 14 -34 15 -34 5 0 -7 4 -11 9 -8 4 3 8 0 8 -5 0 -14 -17
-14 -25 -1 -4 6 -12 7 -18 3 -18 -11 -38 -12 -31 -2 3 5 10 6 16 3 7 -4 8 -2
4 4 -9 15 -12 15 -30 -4 -9 -8 -16 -10 -16 -4 0 8 -6 8 -20 0 -16 -8 -20 -8
-20 4 0 8 -4 17 -9 20 -5 4 -7 -4 -4 -16 3 -14 1 -18 -4 -12 -4 7 -21 10 -38
8 -68 -10 -85 -10 -85 1 0 6 5 16 12 23 7 7 9 12 6 12 -4 0 -14 -10 -22 -22z"/>
<path d="M1176 1227 c3 -10 9 -15 12 -12 3 3 0 11 -7 18 -10 9 -11 8 -5 -6z"/>
<path d="M490 1218 c0 -4 4 -8 9 -8 6 0 12 4 15 8 3 5 -1 9 -9 9 -8 0 -15 -4
-15 -9z"/>
<path d="M914 1219 c-4 -7 -3 -9 4 -5 5 3 13 0 15 -6 4 -9 6 -10 6 -1 1 17
-16 25 -25 12z"/>
<path d="M788 1183 c6 -2 9 -10 6 -15 -4 -7 -2 -8 5 -4 13 9 5 26 -12 25 -9 0
-8 -2 1 -6z"/>
<path d="M756 1162 c-3 -5 1 -9 9 -9 8 0 12 4 9 9 -3 4 -7 8 -9 8 -2 0 -6 -4
-9 -8z"/>
<path d="M436 1145 c-3 -8 -1 -15 4 -15 6 0 10 7 10 15 0 8 -2 15 -4 15 -2 0
-6 -7 -10 -15z"/>
<path d="M375 1080 c3 -5 8 -10 11 -10 2 0 4 5 4 10 0 6 -5 10 -11 10 -5 0 -7
-4 -4 -10z"/>
<path d="M1790 1081 c0 -6 4 -13 10 -16 6 -3 7 1 4 9 -7 18 -14 21 -14 7z"/>
<path d="M1494 1063 c-11 -36 -34 -68 -47 -67 -8 1 -13 -8 -12 -20 2 -22 -15
-47 -27 -39 -4 2 -5 -4 -1 -13 5 -13 2 -16 -9 -11 -12 4 -14 1 -10 -15 3 -14
1 -19 -6 -14 -6 4 -12 -3 -14 -16 -2 -14 -9 -22 -18 -20 -8 2 -12 0 -8 -4 4
-4 0 -13 -10 -21 -9 -8 -11 -12 -4 -8 6 3 12 1 12 -4 0 -10 -14 -15 -32 -12
-4 0 -5 -6 -2 -14 4 -8 1 -15 -6 -15 -6 0 -8 -4 -5 -10 3 -5 1 -10 -4 -10 -6
0 -10 -6 -8 -12 1 -7 -5 -12 -13 -10 -8 2 -11 0 -7 -5 5 -4 18 -8 30 -8 12 -1
28 -5 36 -9 10 -6 12 -5 7 2 -8 13 6 17 18 5 10 -10 46 -11 52 -1 3 4 10 8 15
8 6 0 7 -5 3 -11 -4 -8 0 -8 15 0 20 11 25 8 22 -12 -1 -5 3 -6 9 -2 6 3 7 11
4 17 -5 8 -1 9 11 5 12 -5 25 0 39 16 12 13 28 21 36 19 8 -2 6 3 -5 11 -19
14 -19 16 -2 22 9 4 17 14 17 22 0 8 5 11 10 8 6 -3 10 3 10 14 0 12 5 21 10
21 6 0 10 7 10 16 0 8 5 12 10 9 12 -7 9 17 -2 25 -4 3 -8 20 -10 37 -1 18 -4
30 -7 28 -2 -3 -11 1 -20 7 -12 10 -12 8 2 -8 9 -11 17 -24 17 -28 0 -5 -9 2
-19 15 -13 16 -16 28 -10 36 7 7 6 14 -1 18 -6 3 -8 10 -5 15 3 4 -2 11 -11
14 -15 6 -15 4 0 -19 9 -14 12 -25 7 -25 -5 0 -14 13 -21 30 -7 18 -17 27 -24
23 -6 -4 -5 1 3 10 8 10 11 20 7 24 -3 3 -6 1 -6 -5 0 -7 -5 -12 -11 -12 -5 0
-7 5 -4 10 3 6 4 10 0 10 -3 0 -8 -8 -11 -17z"/>
<path d="M371 1037 c-6 -8 -8 -17 -4 -20 3 -4 1 -7 -5 -7 -7 0 -12 -5 -12 -11
0 -8 5 -7 15 1 9 7 13 15 10 18 -2 3 3 11 13 18 9 7 12 14 6 14 -6 0 -17 -6
-23 -13z"/>
<path d="M661 1016 c-9 -11 -9 -16 0 -22 7 -4 9 -3 5 4 -3 6 2 15 11 21 10 6
13 11 7 11 -6 0 -17 -6 -23 -14z"/>
<path d="M740 1020 c-9 -6 -10 -10 -3 -10 6 0 15 5 18 10 8 12 4 12 -15 0z"/>
<path d="M1387 1019 c7 -7 15 -10 18 -7 3 3 -2 9 -12 12 -14 6 -15 5 -6 -5z"/>
<path d="M690 1000 c0 -5 5 -10 11 -10 5 0 7 5 4 10 -3 6 -8 10 -11 10 -2 0
-4 -4 -4 -10z"/>
<path d="M759 993 c-13 -16 -12 -17 4 -4 9 7 17 15 17 17 0 8 -8 3 -21 -13z"/>
<path d="M696 933 c-6 -14 -5 -15 5 -6 7 7 10 15 7 18 -3 3 -9 -2 -12 -12z"/>
<path d="M1890 921 c0 -6 4 -13 10 -16 6 -3 7 1 4 9 -7 18 -14 21 -14 7z"/>
<path d="M656 902 c-3 -5 1 -9 9 -9 8 0 12 4 9 9 -3 4 -7 8 -9 8 -2 0 -6 -4
-9 -8z"/>
<path d="M276 889 c2 -4 -4 -12 -13 -18 -10 -5 -15 -12 -12 -15 3 -3 15 5 27
17 17 18 19 24 8 24 -8 0 -13 -4 -10 -8z"/>
<path d="M635 869 c-4 -6 -5 -12 -2 -15 2 -3 7 2 10 11 7 17 1 20 -8 4z"/>
<path d="M545 849 c-4 -6 -5 -12 -2 -15 2 -3 7 2 10 11 7 17 1 20 -8 4z"/>
<path d="M215 800 c-3 -5 -2 -10 4 -10 5 0 13 5 16 10 3 6 2 10 -4 10 -5 0
-13 -4 -16 -10z"/>
<path d="M576 802 c-3 -5 1 -9 9 -9 8 0 12 4 9 9 -3 4 -7 8 -9 8 -2 0 -6 -4
-9 -8z"/>
<path d="M610 800 c0 -5 5 -10 11 -10 5 0 7 5 4 10 -3 6 -8 10 -11 10 -2 0 -4
-4 -4 -10z"/>
<path d="M344 702 c4 -3 14 -7 22 -8 9 -1 13 0 10 4 -4 3 -14 7 -22 8 -9 1
-13 0 -10 -4z"/>
<path d="M427 679 c7 -7 15 -10 18 -7 3 3 -2 9 -12 12 -14 6 -15 5 -6 -5z"/>
</g>
</svg>
